<svg width="16" height="16" viewBox="0 0 16 16" fill="none" xmlns="http://www.w3.org/2000/svg">
<g clip-path="url(#clip0_310_3)">
<path d="M6.35651 6.43898C6.36494 6.44599 6.37327 6.45308 6.3816 6.46018C6.38526 6.46318 6.38893 6.46618 6.39271 6.46926C6.61718 6.65783 6.61668 6.96836 6.63078 7.22361C6.63095 7.22663 6.63112 7.22965 6.63129 7.23276C6.6326 7.25661 6.63363 7.28046 6.6346 7.30432C6.63488 7.31096 6.63488 7.31096 6.63517 7.31774C6.64029 7.44143 6.63983 7.56519 6.63978 7.68894C6.63978 7.69779 6.63977 7.70663 6.63977 7.71547C6.63976 7.86874 6.63915 8.02196 6.63541 8.17519C6.63528 8.18085 6.63528 8.18085 6.63514 8.18662C6.63312 8.26888 6.63066 8.35114 6.62809 8.43339C6.61555 8.83568 6.60565 9.23732 6.63653 9.63913C6.63844 9.66403 6.64028 9.68893 6.64207 9.71383C6.66793 10.0727 6.7038 10.4308 7.27145 13.2441C7.2729 13.2484 7.27435 13.2527 7.27584 13.2571C7.39717 13.6174 7.55258 13.9721 7.91268 14.5315C7.91624 14.5355 7.91624 14.5355 7.91987 14.5395C7.94824 14.5703 7.98446 14.5969 8.02998 14.6024C8.04434 14.602 8.04434 14.602 8.05417 14.5918C8.05766 14.5877 8.06106 14.5835 8.06438 14.5792C8.06623 14.5769 8.06809 14.5747 8.07 14.5724C8.07582 14.5652 8.0815 14.558 8.08716 14.5508C8.08891 14.5486 8.09066 14.5463 8.09247 14.5441C8.10487 14.5284 8.11692 14.5125 8.12887 14.4966C8.13073 14.4941 8.13259 14.4916 8.1345 14.4891C8.1957 14.4075 8.25189 14.324 8.30342 14.2373C8.30857 14.2287 8.31381 14.2202 8.31916 14.2117C8.34959 14.1629 8.37515 14.1119 8.40123 14.0612C8.40327 14.0573 8.40531 14.0534 8.40741 14.0493C8.5775 13.7196 8.68691 13.367 8.82825 12.8818C8.84701 12.8171 8.86593 12.7523 8.88495 12.6876C8.88847 12.6756 8.89197 12.6636 8.89547 12.6517C8.90424 12.6217 8.91307 12.5918 8.92209 12.5619C8.92681 12.5462 8.93143 12.5305 8.93598 12.5148C8.93965 12.5022 8.94347 12.4896 8.94727 12.4771C8.94856 12.4725 8.94986 12.4679 8.95119 12.4632C8.9607 12.4325 8.9607 12.4325 8.97682 12.4241C8.9812 12.4238 8.98559 12.4234 8.9901 12.4231C8.99506 12.4225 8.99506 12.4225 9.00012 12.422C9.29871 12.4166 9.60893 12.4862 9.89741 12.5464C9.90112 12.5472 9.90484 12.548 9.90867 12.5488C10.2403 12.6181 10.2403 12.6181 10.3726 12.6784C10.3759 12.6799 10.3792 12.6814 10.3826 12.683C10.4031 12.6929 10.4183 12.7015 10.4296 12.7199C10.4289 12.7296 10.4289 12.7296 10.4264 12.7409C10.4256 12.745 10.4247 12.7492 10.4238 12.7534C10.4192 12.7733 10.4144 12.7932 10.4094 12.813C10.4083 12.8175 10.4071 12.822 10.406 12.8266C10.4022 12.8414 10.3985 12.8561 10.3947 12.8709C10.394 12.8735 10.3934 12.8761 10.3927 12.8787C10.3191 13.1663 10.2364 13.452 10.1373 13.7336C10.1353 13.7393 10.1353 13.7393 10.1333 13.745C10.0757 13.9084 10.015 14.0711 9.94539 14.2308C9.94403 14.234 9.94267 14.2371 9.94127 14.2403C9.87959 14.3817 9.81396 14.5218 9.74038 14.6587C9.73832 14.6625 9.73627 14.6664 9.73416 14.6703C9.71899 14.6987 9.70359 14.7269 9.68803 14.7551C9.68677 14.7573 9.68551 14.7596 9.68421 14.762C9.64926 14.8252 9.61289 14.8874 9.57301 14.9483C9.56558 14.9598 9.55831 14.9714 9.55109 14.983C9.50077 15.0636 9.4459 15.1416 9.38705 15.2176C9.38472 15.2206 9.38239 15.2236 9.37999 15.2267C9.32301 15.3003 9.26245 15.3719 9.19703 15.4397C9.19498 15.4418 9.19294 15.444 9.19083 15.4462C9.17498 15.4626 9.15901 15.479 9.14277 15.4951C9.13964 15.4982 9.1365 15.5014 9.13327 15.5046C9.11609 15.5216 9.09865 15.5382 9.08022 15.5541C9.07276 15.5608 9.06594 15.5679 9.05908 15.5751C9.04019 15.5944 9.01868 15.6111 8.99722 15.6282C8.99002 15.6339 8.9829 15.6398 8.97581 15.6457C8.9466 15.6698 8.91685 15.6929 8.88541 15.7148C8.88113 15.7178 8.87684 15.7208 8.87243 15.7239C8.64446 15.8811 8.36127 15.9996 8.0671 16.0008C8.06067 16.0009 8.06067 16.0009 8.0541 16.0009C7.87612 16.0018 7.87612 16.0018 7.7949 15.9885C7.79031 15.9878 7.78572 15.9871 7.78099 15.9864C7.66392 15.968 7.54798 15.9353 7.44157 15.8883C7.4374 15.8865 7.43322 15.8846 7.42892 15.8828C7.33884 15.8434 7.254 15.7982 7.17477 15.7435C7.16669 15.7379 7.15857 15.7324 7.15044 15.7269C7.12367 15.7086 7.09774 15.6899 7.07288 15.6696C7.06388 15.6623 7.05478 15.6552 7.04558 15.6482C6.99383 15.6082 6.94505 15.566 6.89886 15.5211C6.89225 15.5147 6.88558 15.5083 6.87889 15.502C6.85682 15.481 6.8356 15.4597 6.8153 15.4374C6.80754 15.4288 6.79972 15.4204 6.79182 15.4119C6.75512 15.3727 6.72062 15.3322 6.68694 15.2908C6.68465 15.288 6.68236 15.2852 6.68 15.2823C6.60552 15.1906 6.53725 15.0955 6.4732 14.9979C6.47097 14.9945 6.46874 14.9911 6.46644 14.9876C6.38107 14.8572 6.30373 14.7227 6.23329 14.5855C6.23203 14.583 6.23078 14.5806 6.22948 14.5781C6.15423 14.4313 6.08633 14.282 6.02391 14.1306C6.02256 14.1274 6.02122 14.1241 6.01983 14.1208C5.8585 13.7299 5.73128 13.3288 5.08171 8.19856C5.07785 8.20118 5.074 8.20381 5.07003 8.20651C5.0649 8.21 5.05978 8.21349 5.05465 8.21698C5.05212 8.2187 5.04959 8.22043 5.04698 8.2222C5.02658 8.23608 5.00597 8.24969 4.9852 8.26312C4.97805 8.26776 4.9709 8.2724 4.96376 8.27704C4.96018 8.27936 4.95659 8.28168 4.9529 8.28407C4.93548 8.29538 4.91808 8.30671 4.90068 8.31805C4.87982 8.33164 4.85895 8.34523 4.83806 8.35879C4.80576 8.37978 4.77351 8.40082 4.74147 8.42212C4.70592 8.44575 4.6701 8.46906 4.63426 8.49234C4.61345 8.50586 4.59266 8.51941 4.57188 8.53295C4.55473 8.54412 4.53758 8.55527 4.5204 8.56639C4.47958 8.59285 4.43917 8.61972 4.39898 8.64691C4.37816 8.66096 4.35722 8.67477 4.3358 8.68808C4.30187 8.70915 4.2691 8.73155 4.23618 8.75382C4.21713 8.7667 4.19798 8.77947 4.17876 8.79215C4.13637 8.82016 4.09432 8.84856 4.05226 8.87695C4.04883 8.87927 4.0454 8.88158 4.04187 8.88397C4.0206 8.89832 3.99935 8.91268 3.97811 8.92706C3.97566 8.92871 3.97322 8.93037 3.9707 8.93208C3.9123 8.97163 3.85424 9.01158 3.79643 9.0518C3.78661 9.05864 3.77678 9.06545 3.76692 9.07225C3.73667 9.09315 3.70673 9.11435 3.67699 9.13582C3.65803 9.14947 3.6389 9.16288 3.6196 9.17616C3.59702 9.19171 3.57503 9.20779 3.55326 9.22421C3.53643 9.2369 3.51929 9.24918 3.50196 9.26133C3.45922 9.29158 3.41714 9.32253 3.37569 9.35416C3.36041 9.3658 3.34494 9.37718 3.32925 9.38839C3.31016 9.40209 3.29191 9.41643 3.27374 9.43106C3.26251 9.43988 3.25098 9.44825 3.23928 9.45657C3.21685 9.47261 3.19567 9.4896 3.17452 9.50692C3.16194 9.51718 3.14913 9.52715 3.1362 9.53706C3.12214 9.54793 3.10833 9.55902 3.09447 9.57008C3.08547 9.57721 3.0764 9.58425 3.06726 9.59124C3.04674 9.60703 3.02686 9.62341 3.0069 9.63975C2.99354 9.65069 2.98011 9.66156 2.96666 9.67242C2.90293 9.72386 2.90293 9.72386 2.84154 9.77744C2.83305 9.78475 2.82448 9.79152 2.81548 9.79831C2.7936 9.81519 2.77314 9.83323 2.75263 9.8514C2.74656 9.85675 2.74656 9.85675 2.74038 9.86221C2.73188 9.86972 2.72339 9.87723 2.7149 9.88475C2.70411 9.8943 2.6933 9.90384 2.68249 9.91337C2.67205 9.92258 2.66163 9.9318 2.65121 9.94102C2.64737 9.9444 2.64354 9.94778 2.63959 9.95126C2.62047 9.96822 2.60194 9.98538 2.58437 10.0036C2.57408 10.014 2.56292 10.0236 2.55172 10.0333C2.53506 10.0478 2.51908 10.0625 2.5039 10.0783C2.4911 10.0912 2.47777 10.1037 2.46448 10.1162C2.44616 10.1334 2.42798 10.1507 2.41051 10.1687C2.40194 10.1774 2.39313 10.1859 2.38432 10.1945C2.3671 10.2113 2.35086 10.2287 2.3347 10.2464C2.32517 10.2566 2.31533 10.2664 2.30526 10.2761C2.28474 10.2961 2.26554 10.3168 2.24637 10.3378C2.24191 10.3426 2.23745 10.3475 2.23298 10.3523C2.20211 10.3857 2.17163 10.4194 2.14168 10.4534C2.13898 10.4565 2.13898 10.4565 2.13622 10.4596C2.0363 10.5734 1.94184 10.6907 1.85379 10.8119C1.85154 10.815 1.8493 10.8181 1.84698 10.8212C1.74793 10.957 1.66095 11.0988 1.57898 11.2431C1.57673 11.2471 1.57448 11.251 1.57216 11.2551C1.55634 11.2832 1.54134 11.3115 1.52664 11.34C1.53092 11.3396 1.53092 11.3396 1.5353 11.3392C1.56588 11.3365 1.59612 11.3354 1.62684 11.3353C1.6319 11.3353 1.63696 11.3353 1.64218 11.3353C1.65901 11.3352 1.67584 11.3352 1.69267 11.3352C1.69703 11.3351 1.69703 11.3351 1.70149 11.3351C1.82831 11.3349 1.95489 11.3388 2.08158 11.3436C2.19371 11.3477 2.30626 11.3513 2.4184 11.3453C2.42133 11.3451 2.42425 11.345 2.42727 11.3448C2.79588 11.3246 3.15476 11.2153 3.50382 11.1169C3.86325 11.0156 3.86325 11.0156 4.03236 10.9764C4.03808 10.9751 4.03808 10.9751 4.04392 10.9738C4.05469 10.9713 4.06546 10.9688 4.07624 10.9664C4.08084 10.9653 4.08084 10.9653 4.08553 10.9642C4.11058 10.9586 4.13586 10.9546 4.16131 10.9507C4.17077 10.9756 4.18021 11.0006 4.18964 11.0256C4.19282 11.034 4.196 11.0424 4.19918 11.0508C4.21999 11.1057 4.24048 11.1608 4.26073 11.2159C4.2829 11.2762 4.30528 11.3365 4.32803 11.3967C4.32933 11.4002 4.33064 11.4036 4.33198 11.4072C4.34124 11.4317 4.35051 11.4562 4.35979 11.4807C4.37038 11.5086 4.38097 11.5366 4.39155 11.5646C4.39351 11.5698 4.39351 11.5698 4.39551 11.5751C4.41639 11.6304 4.43689 11.6858 4.45724 11.7412C4.47679 11.7944 4.49661 11.8476 4.51667 11.9006C4.51801 11.9042 4.51936 11.9078 4.52074 11.9114C4.53024 11.9366 4.53975 11.9617 4.54926 11.9868C4.61123 12.1505 4.61123 12.1505 4.62971 12.2013C4.63093 12.2046 4.63215 12.2079 4.63341 12.2113C4.63769 12.2232 4.64114 12.2332 4.64114 12.2458C4.63872 12.2463 4.63631 12.2468 4.63382 12.2473C4.4674 12.2813 4.30173 12.3178 4.13623 12.3551C4.13121 12.3563 4.12619 12.3574 4.12102 12.3586C4.03379 12.3783 3.94656 12.398 3.85936 12.4178C3.47207 12.5056 3.08306 12.586 2.20455 12.6922C2.1948 12.6928 2.18505 12.6936 2.1753 12.6943C2.08211 12.7011 1.98878 12.7014 1.89534 12.7016C1.88562 12.7016 1.87591 12.7016 1.8662 12.7016C1.74944 12.702 1.63315 12.6979 1.51709 12.6859C1.51389 12.6856 1.51068 12.6853 1.50738 12.6849C1.28675 12.6626 1.07098 12.6148 0.867965 12.5349C0.864147 12.5334 0.86033 12.5319 0.856396 12.5303C0.722291 12.4774 0.598514 12.4048 0.488467 12.319C0.48525 12.3165 0.482032 12.314 0.478718 12.3114C0.451214 12.2898 0.424814 12.2673 0.398773 12.2443C0.394929 12.241 0.391086 12.2376 0.387126 12.2342C0.360827 12.211 0.337119 12.1866 0.313985 12.161C0.309725 12.1565 0.305451 12.1519 0.301155 12.1474C0.241739 12.0843 0.190517 12.0144 0.148227 11.9413C0.14555 11.9367 0.14555 11.9367 0.142819 11.932C0.0767995 11.8177 0.0366571 11.6944 0.0173658 11.5674C0.0165993 11.5625 0.0165993 11.5625 0.0158173 11.5576C-0.0348441 11.2215 0.088619 10.8801 0.610605 10.0333C0.613202 10.03 0.6158 10.0267 0.618477 10.0233C0.676428 9.94945 0.736243 9.87712 0.798173 9.80588C0.80232 9.8011 0.806466 9.79631 0.810611 9.79152C0.852874 9.74275 0.896063 9.69468 0.940042 9.64711C0.945743 9.64094 0.95143 9.63476 0.957115 9.62858C0.976445 9.60759 0.99609 9.58687 1.01592 9.56625C1.0284 9.55326 1.04067 9.54015 1.05281 9.52691C1.08737 9.48943 1.12359 9.45314 1.16033 9.41732C1.16838 9.40943 1.17632 9.40147 1.18421 9.39345C1.20215 9.37527 1.22045 9.35739 1.23874 9.33949C1.24189 9.33639 1.24504 9.33329 1.24828 9.33009C1.27199 9.30675 1.29592 9.28361 1.31994 9.26051C1.32572 9.25494 1.33148 9.24936 1.33724 9.24378C1.4288 9.15511 1.4288 9.15511 1.47731 9.11351C1.4857 9.10588 1.49354 9.09813 1.50139 9.09007C1.51634 9.07493 1.53195 9.06057 1.54805 9.0464C1.55089 9.04388 1.55374 9.04136 1.55666 9.03877C1.56595 9.03055 1.57525 9.02234 1.58455 9.01413C1.59108 9.00836 1.5976 9.0026 1.60412 8.99683C1.61775 8.98478 1.63139 8.97274 1.64503 8.9607C1.66244 8.94534 1.67983 8.92995 1.69722 8.91457C1.71068 8.90266 1.72414 8.89077 1.73761 8.87888C1.74402 8.87322 1.75043 8.86755 1.75684 8.86188C1.76583 8.85393 1.77482 8.84599 1.78382 8.83806C1.78642 8.83575 1.78903 8.83345 1.7917 8.83107C1.80767 8.81704 1.82416 8.80376 1.84126 8.79081C1.85557 8.77966 1.86879 8.76756 1.88214 8.75553C1.90146 8.73828 1.92081 8.72148 1.94181 8.70582C1.95461 8.69587 1.96638 8.68503 1.97824 8.67423C1.98709 8.66661 1.99608 8.65943 2.0054 8.65228C2.02424 8.63783 2.04236 8.62279 2.06044 8.60762C2.0838 8.5881 2.10727 8.56875 2.13127 8.54985C2.14356 8.54012 2.15571 8.53027 2.16786 8.52041C2.18749 8.50448 2.20722 8.48864 2.22707 8.47292C2.23419 8.46726 2.24129 8.46158 2.24837 8.45588C2.26657 8.44124 2.28497 8.42706 2.30417 8.41345C2.32629 8.39765 2.34695 8.38076 2.36764 8.36355C2.38667 8.3478 2.40642 8.33313 2.42677 8.31873C2.43899 8.30984 2.45065 8.30054 2.46229 8.29107C2.48179 8.27521 2.50195 8.26034 2.52256 8.24564C2.53404 8.23727 2.54508 8.22862 2.55608 8.21976C2.57449 8.20495 2.59351 8.191 2.61285 8.17716C2.62756 8.1665 2.642 8.15558 2.65641 8.1446C2.67829 8.12794 2.70043 8.11161 2.72286 8.09553C2.7362 8.08585 2.74933 8.07597 2.76246 8.06606C2.78191 8.05141 2.8017 8.03727 2.82189 8.02342C2.84592 8.00694 2.86911 7.98976 2.89211 7.97218C2.90958 7.95884 2.92735 7.94592 2.94546 7.93326C2.96062 7.92262 2.97563 7.91184 2.99065 7.90104C2.99361 7.89891 2.99657 7.89679 2.99962 7.8946C3.00881 7.88799 3.01799 7.88139 3.02718 7.87478C3.09587 7.82539 3.09587 7.82539 3.12894 7.8021C3.14113 7.79346 3.15325 7.78474 3.16537 7.77601C3.19283 7.75623 3.22044 7.73666 3.24837 7.71739C3.26799 7.70382 3.28733 7.68997 3.30662 7.67604C3.33199 7.65773 3.35769 7.63992 3.38373 7.62237C3.39921 7.61189 3.41439 7.60109 3.42958 7.59027C3.45601 7.57147 3.48285 7.5532 3.50986 7.53506C3.53337 7.51923 3.5565 7.50303 3.57952 7.48665C3.59862 7.47308 3.61792 7.45977 3.63739 7.44662C3.65085 7.43752 3.66426 7.42838 3.6776 7.41915C3.71571 7.39283 3.7541 7.36691 3.79287 7.34136C3.81714 7.32533 3.84112 7.30903 3.86497 7.29251C3.89455 7.27204 3.92458 7.25219 3.95491 7.2326C3.98116 7.2156 4.00707 7.19823 4.03291 7.18073C4.06735 7.15742 4.10223 7.13474 4.13749 7.11241C4.15793 7.09945 4.17817 7.08626 4.19839 7.07305C4.25336 7.03718 4.30872 7.00183 4.36463 6.96711C4.38697 6.95322 4.40911 6.93909 4.43121 6.92489C4.46731 6.90176 4.50398 6.87944 4.54088 6.85732C4.55128 6.85106 4.56166 6.84479 4.57203 6.8385C4.62119 6.8087 4.67058 6.77921 4.7202 6.74999C4.72388 6.74783 4.72756 6.74566 4.73135 6.74343C4.79243 6.70747 4.85384 6.67206 4.91595 6.63749C4.92029 6.63507 4.92462 6.63264 4.92909 6.63014C4.99093 6.5956 5.05333 6.56203 5.1166 6.52956C5.12036 6.52763 5.12412 6.5257 5.12799 6.52371C5.18896 6.49246 5.25059 6.46232 5.31289 6.4332C5.31693 6.43132 5.32096 6.42943 5.32511 6.42749C5.47166 6.35955 5.62828 6.31251 5.79272 6.29444C5.7973 6.29393 5.80187 6.29342 5.80659 6.29289C6.00303 6.27494 6.20896 6.31954 6.35651 6.43898Z" fill="#260F86"/>
<path d="M7.91569 -0.000788002C7.91962 -0.000815039 7.92356 -0.000842075 7.92761 -0.000869931C7.94026 -0.000937103 7.9529 -0.000961874 7.96555 -0.000968681C7.96986 -0.000971282 7.97418 -0.000973883 7.97863 -0.000976562C8.04189 -0.000915936 8.10342 0.000707347 8.16566 0.0115584C8.17166 0.0125506 8.17166 0.0125506 8.17779 0.0135628C8.49061 0.0659081 8.7743 0.221086 9.00512 0.410747C9.01227 0.416588 9.01948 0.42237 9.0267 0.428145C9.04979 0.446667 9.07208 0.465029 9.09213 0.486203C9.09989 0.494138 9.10812 0.50144 9.11658 0.508788C9.13351 0.523572 9.14915 0.539033 9.16457 0.555042C9.16816 0.558734 9.17175 0.562425 9.17545 0.566229C9.26041 0.653864 9.33758 0.747478 9.40884 0.844129C9.41103 0.84709 9.41322 0.85005 9.41547 0.853101C9.48235 0.943842 9.54351 1.0375 9.60077 1.13322C9.6029 1.13676 9.60502 1.1403 9.60721 1.14394C9.62273 1.16982 9.63798 1.19582 9.65311 1.22187C9.6556 1.22613 9.65808 1.23039 9.66064 1.23477C9.70371 1.30885 9.74282 1.38418 9.78052 1.46049C9.7874 1.47441 9.79438 1.48828 9.80141 1.50215C9.9066 1.71015 9.99424 1.92531 10.0744 2.14173C10.0785 2.15296 10.0827 2.16418 10.0869 2.1754C10.1727 2.40412 10.2454 2.63651 10.3124 2.87004C10.3161 2.88293 10.3198 2.89581 10.3235 2.9087C10.4259 3.26523 10.51 3.62639 10.6024 4.09653C10.604 4.1049 10.6056 4.11327 10.6072 4.12165C10.6692 4.44533 10.7214 4.77064 10.8745 6.25198C10.8748 6.25656 10.875 6.26114 10.8753 6.26586C10.9215 7.0729 10.9215 7.0729 10.6523 7.3687C10.553 7.46402 10.4201 7.51475 10.2769 7.53553C10.2738 7.53598 10.2707 7.53643 10.2676 7.5369C10.1537 7.55258 10.0329 7.54557 9.9192 7.53167C9.91536 7.53124 9.91151 7.5308 9.90755 7.53035C9.87727 7.52609 9.85325 7.51487 9.82678 7.50156C9.82223 7.49933 9.81768 7.4971 9.813 7.4948C9.79893 7.48787 9.7849 7.48087 9.77089 7.47386C9.76256 7.46971 9.75424 7.46557 9.74591 7.46144C9.72947 7.45325 9.71306 7.44503 9.69665 7.43679C9.66843 7.42264 9.64006 7.40874 9.61168 7.39484C9.57094 7.37489 9.53031 7.35477 9.48979 7.33448C9.4594 7.31927 9.42896 7.30415 9.39848 7.28908C9.39395 7.28684 9.38943 7.28461 9.38476 7.2823C9.37098 7.27548 9.35719 7.26867 9.34341 7.26186C9.28615 7.23356 9.22892 7.20521 9.17182 7.17665C9.1411 7.16129 9.11031 7.14603 9.07951 7.13081C9.04042 7.11149 9.00141 7.09208 8.96245 7.07258C8.93172 7.05722 8.90094 7.04196 8.87013 7.02674C8.83518 7.00947 8.80028 6.99213 8.76544 6.9747C8.71704 6.95049 8.66853 6.92648 8.61999 6.90249C8.59722 6.89123 8.57446 6.87997 8.5517 6.8687C8.54719 6.86647 8.54269 6.86424 8.53805 6.86195C8.51543 6.85076 8.49282 6.83957 8.47022 6.82836C8.36966 6.77855 8.26885 6.72915 8.16789 6.67998C8.14906 6.67081 8.13024 6.66162 8.11142 6.65243C8.10069 6.64719 8.08996 6.64195 8.07923 6.63671C8.0766 6.63542 8.07396 6.63414 8.07125 6.63281C8.03109 6.61321 7.99078 6.59387 7.9504 6.57465C7.92178 6.56098 7.89346 6.5469 7.86522 6.53264C7.81686 6.50825 7.76768 6.4853 7.71842 6.46238C7.68397 6.44635 7.64962 6.4302 7.61549 6.41363C7.57115 6.39211 7.52649 6.37115 7.48179 6.35023C7.44863 6.3347 7.41552 6.31909 7.38248 6.30336C7.32337 6.27523 7.26383 6.24791 7.20409 6.22082C7.20114 6.21948 7.19819 6.21814 7.19515 6.21677C7.19225 6.21545 7.18936 6.21414 7.18637 6.21279C7.16413 6.20269 7.14196 6.19246 7.11985 6.18212C7.04617 6.14769 6.97219 6.11372 6.8975 6.08102C6.87449 6.07092 6.85174 6.06047 6.82906 6.0498C6.78026 6.02699 6.7309 6.00516 6.68151 5.98338C6.66628 5.97666 6.65106 5.96993 6.63584 5.96319C6.58093 5.93892 6.52582 5.91511 6.47039 5.89181C6.44829 5.88251 6.42627 5.87307 6.40429 5.86355C6.40092 5.86209 6.39755 5.86064 6.39408 5.85914C6.3873 5.8562 6.38051 5.85326 6.37373 5.85032C6.31625 5.82545 6.25864 5.80092 6.2005 5.77728C6.17287 5.76605 6.14532 5.75469 6.11786 5.74314C6.04612 5.71298 5.97413 5.68349 5.90143 5.65516C5.85432 5.63681 5.80739 5.6181 5.76052 5.59926C5.67579 5.56521 5.59058 5.5323 5.50481 5.50036C5.49756 5.49765 5.49031 5.49495 5.48306 5.49225C5.18513 5.38122 4.88486 5.27589 4.58005 5.18043C4.57655 5.17934 4.57304 5.17824 4.56943 5.17711C4.16008 5.04898 3.7444 4.9343 1.99358 4.65687C1.98536 4.65628 1.97714 4.65565 1.96893 4.65502C1.92067 4.65168 1.87239 4.65152 1.82401 4.65144C1.80943 4.6514 1.79486 4.65128 1.78029 4.65116C1.64849 4.64928 1.64849 4.64928 1.53098 4.69477C1.52579 4.70851 1.52757 4.71095 1.53374 4.7239C1.53543 4.72748 1.53711 4.73106 1.53885 4.73475C1.54075 4.73865 1.54265 4.74255 1.54461 4.74656C1.54658 4.75065 1.54854 4.75474 1.55057 4.75896C1.60626 4.87373 1.66895 4.98512 1.74158 5.09227C1.74886 5.10302 1.75607 5.11382 1.76327 5.12462C1.82273 5.21306 1.88905 5.29831 1.95846 5.38087C1.96068 5.38351 1.96289 5.38615 1.96518 5.38887C1.98027 5.40684 1.9955 5.42471 2.0108 5.44254C2.01357 5.44578 2.01357 5.44578 2.0164 5.44908C2.04498 5.48242 2.07464 5.51493 2.10462 5.54729C2.11035 5.55348 2.11607 5.55969 2.12178 5.5659C2.1469 5.59318 2.17256 5.62005 2.19837 5.64683C2.20055 5.64909 2.20273 5.65136 2.20498 5.65369C2.23002 5.6797 2.25526 5.70549 2.28123 5.73078C2.28916 5.73854 2.29695 5.74638 2.3047 5.75427C2.32349 5.77333 2.34291 5.79187 2.36229 5.81046C2.37202 5.81982 2.3817 5.82921 2.39139 5.83859C2.43401 5.87967 2.4768 5.92057 2.5219 5.95955C2.53397 5.97005 2.54546 5.98073 2.55644 5.99213C2.57545 6.01141 2.59581 6.02941 2.61629 6.04747C2.62235 6.05283 2.62235 6.05283 2.62853 6.05829C2.63702 6.0658 2.64552 6.07331 2.65403 6.08081C2.66484 6.09034 2.67564 6.09989 2.68642 6.10944C2.69684 6.11867 2.70728 6.12788 2.71771 6.13709C2.72154 6.14047 2.72536 6.14386 2.72931 6.14736C2.74838 6.16415 2.76775 6.18032 2.78817 6.19584C2.79966 6.20473 2.81031 6.21419 2.82105 6.2238C2.82325 6.22575 2.82544 6.2277 2.8277 6.22971C2.83689 6.23789 2.84605 6.2461 2.85522 6.25431C2.8787 6.2753 2.90216 6.296 2.92758 6.31518C2.94185 6.32624 2.95499 6.3383 2.96827 6.35027C2.9878 6.36771 3.00734 6.38474 3.02861 6.40053C3.03619 6.4064 3.04291 6.41267 3.04979 6.41917C3.10323 6.46693 3.16859 6.48782 3.2409 6.50252C3.25188 6.58423 3.25188 6.58423 3.22356 6.61639C3.2099 6.6298 3.1954 6.6422 3.18052 6.65454C3.17402 6.66025 3.16754 6.66599 3.16107 6.67174C3.14361 6.68718 3.12585 6.70234 3.10802 6.71746C3.08935 6.73338 3.07097 6.74956 3.05256 6.76572C3.01768 6.79625 2.98255 6.82654 2.94733 6.85676C2.90341 6.89445 2.85983 6.93243 2.81624 6.97042C2.77172 7.0092 2.72717 7.04795 2.68242 7.08651C2.67898 7.08948 2.67554 7.09245 2.672 7.0955C2.65593 7.10936 2.63985 7.1232 2.62375 7.13703C2.59965 7.15777 2.57577 7.17833 2.55403 7.20106C2.54089 7.21448 2.52647 7.22683 2.51224 7.23935C2.50887 7.24232 2.5055 7.2453 2.50204 7.24836C2.49103 7.25809 2.48 7.2678 2.46897 7.27752C2.46129 7.2843 2.45361 7.29108 2.44592 7.29787C2.42579 7.31564 2.40564 7.33341 2.38549 7.35117C2.3649 7.36933 2.34432 7.3875 2.32374 7.40567C2.28342 7.44125 2.24308 7.47683 2.20273 7.5124C2.18974 7.50691 2.18101 7.50169 2.17111 7.49241C2.16122 7.48317 2.15091 7.47478 2.13996 7.46655C2.10941 7.44312 2.08154 7.41708 2.05311 7.39168C2.01581 7.35835 2.01581 7.35835 1.97643 7.32699C1.95079 7.30671 1.92712 7.28445 1.90294 7.26283C1.89556 7.25624 1.88816 7.24965 1.88076 7.24307C1.87857 7.2411 1.87638 7.23913 1.87412 7.2371C1.86226 7.22656 1.8501 7.21656 1.83734 7.20687C1.81574 7.19033 1.79576 7.17247 1.77566 7.15454C1.7695 7.14907 1.76334 7.1436 1.75718 7.13814C1.74431 7.12672 1.73147 7.11528 1.71862 7.10385C1.708 7.0944 1.69737 7.08495 1.68673 7.07552C1.6788 7.06848 1.67087 7.06143 1.66296 7.05437C1.6439 7.03746 1.62455 7.02118 1.60405 7.00562C1.59362 6.99761 1.58381 6.98912 1.57404 6.9805C1.57015 6.97707 1.56627 6.97364 1.56227 6.97012C1.55833 6.96662 1.55439 6.96312 1.55033 6.95952C1.54638 6.95604 1.54242 6.95256 1.53835 6.94898C1.53447 6.94554 1.53059 6.94211 1.5266 6.93858C1.52142 6.93399 1.52142 6.93399 1.51613 6.92931C1.50719 6.92102 1.49867 6.91262 1.4902 6.90396C1.47481 6.8883 1.45853 6.87363 1.44183 6.85907C1.43735 6.85513 1.43735 6.85513 1.43279 6.85112C1.42336 6.84284 1.41392 6.83457 1.40448 6.8263C1.39202 6.81539 1.37957 6.80447 1.36713 6.79354C1.36293 6.78988 1.36293 6.78988 1.35864 6.78614C1.34201 6.77152 1.32626 6.75645 1.31099 6.7407C1.30056 6.73017 1.28932 6.72043 1.27798 6.71067C1.26058 6.6955 1.24399 6.68007 1.22814 6.66362C1.22106 6.6565 1.21365 6.64985 1.20601 6.64321C1.196 6.63451 1.18653 6.62564 1.17738 6.61623C1.16196 6.60041 1.14584 6.5852 1.12967 6.56998C1.11135 6.55271 1.09317 6.53541 1.07571 6.51746C1.06713 6.50874 1.05832 6.50022 1.04952 6.49168C1.03587 6.47834 1.02278 6.46472 1.00999 6.45073C0.996568 6.43607 0.982723 6.42196 0.968273 6.40809C0.950672 6.39117 0.934082 6.37375 0.917752 6.35587C0.905656 6.34282 0.893236 6.33004 0.88076 6.31727C0.863237 6.2993 0.846089 6.28115 0.829455 6.26252C0.822063 6.25431 0.8146 6.24618 0.807065 6.23807C0.778841 6.20769 0.751511 6.17689 0.725004 6.14532C0.711864 6.1297 0.698465 6.11425 0.685048 6.09881C0.654023 6.06307 0.62398 6.0269 0.594903 5.98991C0.588946 5.98238 0.582907 5.97492 0.576831 5.96747C0.326319 5.65958 0.115271 5.30815 -0.00146484 4.65189C-0.00145689 4.6479 -0.00144907 4.64392 -0.00144088 4.63982C-0.00124099 4.5803 0.000750627 4.52218 0.0129844 4.4635C0.0137562 4.45969 0.0145279 4.45588 0.0153231 4.45196C0.0628375 4.2227 0.181027 4.00862 0.357586 3.83522C0.35971 3.83312 0.361833 3.83103 0.364021 3.82887C0.407169 3.7865 0.451745 3.74437 0.501534 3.70802C0.50384 3.70631 0.506146 3.70461 0.508522 3.70285C0.806169 3.48309 1.16493 3.38776 1.57896 3.34955C1.58433 3.34907 1.58433 3.34907 1.5898 3.34857C1.83642 3.32658 2.09127 3.3311 2.33796 3.34955C2.34241 3.34988 2.34686 3.3502 2.35145 3.35054C2.79867 3.38355 3.23915 3.4603 5.05141 3.93133C5.06468 3.93557 5.07795 3.9398 5.09123 3.94403C5.38201 4.03671 5.67042 4.13536 5.95608 4.23974C5.97063 4.24505 5.98518 4.25034 5.99974 4.25563C6.17688 4.32001 6.35308 4.3864 6.52826 4.45482C6.55399 4.46486 6.57975 4.47482 6.60552 4.48476C6.69475 4.51916 6.78347 4.5544 6.87183 4.59051C6.90265 4.6031 6.93359 4.61548 6.96453 4.62784C7.03179 4.65473 7.09864 4.68236 7.16537 4.71026C7.18592 4.71885 7.2065 4.72736 7.2271 4.73583C7.38746 4.80183 7.54575 4.8717 7.70401 4.94154C7.71242 4.94525 7.72083 4.94896 7.72924 4.95267C7.78593 4.97767 7.84244 5.00288 7.8984 5.02912C7.9166 5.03765 7.93489 5.046 7.95323 5.05429C7.95754 5.05624 7.95754 5.05624 7.96194 5.05823C7.96772 5.06085 7.97351 5.06347 7.9793 5.06608C8.02716 5.08774 8.07476 5.10972 8.12184 5.13269C8.1529 5.14779 8.18431 5.16223 8.21582 5.17658C8.26378 5.19843 8.31126 5.22096 8.35854 5.24394C8.38034 5.2545 8.40223 5.26491 8.42411 5.27535C8.46381 5.29433 8.50335 5.31355 8.54276 5.33299C8.56041 5.34169 8.57809 5.35035 8.59576 5.35901C8.68404 5.4023 8.7722 5.44578 8.85979 5.49017C8.8761 5.49842 8.89243 5.50665 8.90876 5.51489C9.0012 5.5615 9.09349 5.6083 9.18498 5.65637C9.21868 5.67407 9.25252 5.69153 9.2867 5.7085C9.28526 5.70596 9.28382 5.70341 9.28234 5.70079C9.28088 5.69024 9.27963 5.67974 9.27853 5.66916C9.27818 5.66585 9.27782 5.66255 9.27745 5.65914C9.27667 5.65188 9.2759 5.64462 9.27513 5.63736C9.27389 5.6256 9.27262 5.61384 9.27135 5.60209C9.26952 5.58507 9.26769 5.56806 9.26587 5.55105C9.2259 5.17843 9.1801 4.80644 8.76762 2.89857C8.76503 2.89107 8.76243 2.88356 8.75984 2.87605C8.63563 2.51723 8.50102 2.15773 8.02171 1.39532C8.00673 1.38924 7.99941 1.38761 7.98245 1.38761C7.9755 1.39351 7.9755 1.39351 7.96987 1.40174C7.96646 1.40627 7.96646 1.40627 7.96298 1.4109C7.95939 1.41583 7.95939 1.41583 7.95573 1.42086C7.95063 1.42768 7.94551 1.4345 7.9404 1.44132C7.93789 1.44468 7.93539 1.44805 7.93281 1.45151C7.92374 1.46349 7.91417 1.47503 7.90448 1.48662C7.8491 1.55412 7.80238 1.62752 7.75562 1.69983C7.75368 1.70283 7.75173 1.70584 7.74972 1.70893C7.55526 2.0102 7.41625 2.33836 7.20982 3.00803C7.20742 3.01677 7.20501 3.02551 7.2026 3.03425C7.14776 3.23277 7.10529 3.43408 7.06206 3.63478C7.05691 3.63364 7.05176 3.6325 7.04646 3.63132C6.82406 3.58205 6.60028 3.54749 6.37386 3.51605C6.10005 3.478 6.10005 3.478 5.97154 3.45362C5.96815 3.45298 5.96476 3.45234 5.96127 3.45168C5.70035 3.40215 5.70035 3.40215 5.65748 3.34569C5.62339 3.29341 5.61578 3.23831 5.61631 3.17899C5.61632 3.17634 5.61634 3.17369 5.61636 3.17096C5.61679 3.11648 5.62394 3.06386 5.63567 3.01035C5.63714 3.00348 5.63714 3.00348 5.63865 2.99647C5.66763 2.86421 5.7143 2.73583 5.76046 2.60763C5.78122 2.54994 5.80119 2.49215 5.81969 2.43387C5.92897 2.09042 6.06882 1.75245 6.24199 1.43001C6.24493 1.4245 6.24493 1.4245 6.24793 1.41888C6.30405 1.3137 6.36146 1.20873 6.42765 1.10818C6.43815 1.09203 6.44813 1.07563 6.45819 1.05926C6.56722 0.883011 6.69784 0.711861 6.84571 0.559152C6.85585 0.548652 6.86559 0.537902 6.87531 0.527097C6.92136 0.47737 6.97368 0.432339 7.02498 0.38689C7.02742 0.38472 7.02987 0.382551 7.03238 0.380315C7.05893 0.356771 7.08565 0.333672 7.1144 0.312209C7.11861 0.308949 7.12281 0.30569 7.12715 0.302332C7.34252 0.138309 7.6245 0.000553741 7.91569 -0.000788002Z" fill="#2A1093"/>
<path d="M15.6067 3.77244C15.6413 3.80207 15.6741 3.83204 15.7034 3.86588C15.7064 3.86919 15.7064 3.86919 15.7094 3.87257C15.8948 4.08151 15.973 4.34201 15.981 4.60426C15.9811 4.60739 15.9812 4.61052 15.9813 4.61374C15.9914 4.96219 15.8692 5.27632 15.6293 5.67749C15.6266 5.68162 15.6238 5.68575 15.621 5.69C15.5077 5.86167 15.3803 6.02539 15.2431 6.18279C15.2372 6.18957 15.2313 6.19638 15.2255 6.20319C15.2034 6.22877 15.1807 6.25384 15.1577 6.27873C15.1422 6.29545 15.1271 6.31234 15.1121 6.32938C15.0937 6.35025 15.0746 6.37044 15.055 6.39043C15.042 6.40372 15.0292 6.41714 15.0167 6.4308C14.9965 6.45273 14.9756 6.474 14.9546 6.49529C14.9452 6.50481 14.9359 6.51437 14.9267 6.52399C14.9008 6.55091 14.8743 6.57717 14.847 6.60302C14.8379 6.61175 14.8289 6.62055 14.8201 6.62955C14.8026 6.64747 14.7843 6.66478 14.766 6.68216C14.7537 6.69397 14.7414 6.70584 14.7291 6.71772C14.6516 6.79244 14.6516 6.79244 14.6167 6.82271C14.6089 6.82966 14.6017 6.83682 14.5946 6.84423C14.5778 6.86129 14.56 6.8773 14.5419 6.89326C14.5384 6.89634 14.5349 6.89942 14.5313 6.9026C14.5199 6.9127 14.5085 6.92278 14.4971 6.93287C14.4891 6.93993 14.4811 6.947 14.4731 6.95406C14.4564 6.96883 14.4397 6.98359 14.423 6.99835C14.4037 7.01534 14.3845 7.03235 14.3652 7.04936C14.3466 7.06582 14.328 7.08227 14.3094 7.09871C14.3015 7.10566 14.2937 7.11262 14.2858 7.11959C14.2748 7.12933 14.2637 7.13907 14.2527 7.1488C14.2495 7.15165 14.2463 7.15449 14.243 7.15743C14.2254 7.17284 14.2075 7.18759 14.1888 7.20179C14.1769 7.21097 14.1659 7.22088 14.1549 7.23085C14.1378 7.24614 14.1205 7.26071 14.102 7.27464C14.0903 7.28372 14.0795 7.2935 14.0688 7.30337C14.0603 7.31065 14.0516 7.31751 14.0427 7.32435C14.0238 7.33884 14.0056 7.35392 13.9875 7.36913C13.9643 7.38856 13.9409 7.40781 13.917 7.42662C13.9037 7.43721 13.8905 7.44798 13.8774 7.45875C13.8596 7.47326 13.8418 7.48757 13.8235 7.50154C13.8124 7.51012 13.8016 7.51888 13.7907 7.52765C13.7667 7.54695 13.7424 7.56589 13.7178 7.58449C13.7125 7.58843 13.7073 7.59237 13.7021 7.59631C13.6994 7.5983 13.6968 7.60029 13.6941 7.60235C13.6777 7.6147 13.6617 7.62729 13.6459 7.64015C13.6307 7.65252 13.6151 7.66433 13.599 7.67581C13.5816 7.68822 13.565 7.70113 13.5486 7.71459C13.5288 7.73083 13.5084 7.74612 13.4874 7.76109C13.4721 7.77217 13.4572 7.78358 13.4423 7.79505C13.4048 7.82387 13.3671 7.8524 13.3286 7.88009C13.31 7.89348 13.2917 7.90719 13.2735 7.92105C13.2533 7.93644 13.2329 7.95146 13.2119 7.96608C13.1954 7.97774 13.1791 7.98962 13.1628 8.00151C13.1596 8.00387 13.1563 8.00623 13.153 8.00867C13.1467 8.01328 13.1403 8.0179 13.134 8.02251C13.1152 8.0362 13.0964 8.04982 13.0775 8.06342C13.0749 8.06528 13.0723 8.06715 13.0697 8.06906C13.0366 8.09294 13.0034 8.11664 12.9697 8.13988C12.9502 8.15338 12.9309 8.16714 12.9117 8.18099C12.8825 8.20205 12.853 8.22275 12.8233 8.24326C12.8106 8.25203 12.7979 8.26084 12.7852 8.26964C12.7801 8.27319 12.775 8.27674 12.7699 8.28028C12.7599 8.28719 12.75 8.29411 12.74 8.30103C12.6797 8.34298 12.6191 8.38459 12.5581 8.42573C12.5433 8.43574 12.5285 8.44579 12.5137 8.45586C12.4565 8.49473 12.3992 8.53343 12.341 8.57109C12.315 8.58797 12.2893 8.60521 12.2637 8.62257C12.2321 8.64395 12.2002 8.66486 12.1678 8.68534C12.1466 8.69879 12.1256 8.71249 12.1047 8.7264C12.0706 8.74915 12.036 8.77126 12.0013 8.79331C11.9849 8.80374 11.9685 8.81422 11.9521 8.82469C11.9455 8.82886 11.939 8.83303 11.9325 8.8372C11.9193 8.84559 11.9062 8.85399 11.893 8.8624C11.8582 8.88469 11.8232 8.90682 11.788 8.92867C11.7654 8.94274 11.743 8.95704 11.7206 8.9714C11.6936 8.98871 11.6663 9.00569 11.6388 9.02231C11.6192 9.03413 11.5997 9.04614 11.5803 9.05824C11.4998 9.10845 11.4164 9.15458 11.3327 9.2005C11.3288 9.20262 11.3249 9.20475 11.3209 9.20694C11.2943 9.22153 11.2677 9.23608 11.2411 9.25061C11.2368 9.25296 11.2325 9.2553 11.228 9.25772C11.1613 9.29411 11.0944 9.33019 11.0274 9.36609C10.9681 9.39785 10.9089 9.42973 10.8498 9.46188C10.8099 9.48361 10.77 9.50521 10.7299 9.52668C10.7273 9.52806 10.7248 9.52943 10.7221 9.53084C10.7095 9.53762 10.6968 9.54441 10.6841 9.55119C10.627 9.58181 10.5699 9.6125 10.5131 9.64363C10.4825 9.66045 10.4517 9.67717 10.421 9.69387C10.312 9.75309 10.2033 9.81267 10.0953 9.8732C10.0853 9.87881 10.0752 9.88439 10.0651 9.88996C10.0082 9.92154 9.95215 9.95437 9.89619 9.9873C9.89229 9.98959 9.88838 9.99188 9.88436 9.99424C9.84439 10.0177 9.80456 10.0414 9.76528 10.0658C9.76236 10.0676 9.75945 10.0694 9.75644 10.0712C9.70758 10.0993 9.70758 10.0993 9.67073 10.1371C9.66839 10.15 9.66819 10.1597 9.67493 10.1715C9.7258 10.2311 9.83734 10.2503 9.91275 10.2728C10.1193 10.3343 10.1193 10.3343 10.1549 10.3684C10.1549 10.371 10.1549 10.3735 10.1549 10.3761C10.1584 10.3771 10.1618 10.378 10.1654 10.379C10.1851 10.3851 10.2041 10.3923 10.2233 10.3997C10.232 10.403 10.2406 10.4063 10.2492 10.4096C10.2537 10.4113 10.2582 10.413 10.2629 10.4148C10.6824 10.5749 11.1093 10.7202 11.6904 10.908C11.696 10.9098 11.696 10.9098 11.7018 10.9117C12.0819 11.0326 12.4651 11.149 13.4456 11.3365C13.4499 11.3365 13.4542 11.3365 13.4587 11.3366C13.4729 11.3366 13.4872 11.3366 13.5014 11.3367C13.5117 11.3367 13.522 11.3368 13.5323 11.3368C13.5601 11.3369 13.5879 11.337 13.6157 11.3371C13.6418 11.3371 13.6679 11.3372 13.6941 11.3373C13.7458 11.3375 13.7976 11.3377 13.8493 11.3378C13.8996 11.338 13.9498 11.3381 14 11.3383C14.0031 11.3383 14.0062 11.3383 14.0094 11.3383C14.025 11.3384 14.0405 11.3384 14.0561 11.3385C14.185 11.3389 14.3139 11.3393 14.4428 11.3397C14.4394 11.3301 14.436 11.3204 14.4326 11.3108C14.4316 11.3081 14.4307 11.3054 14.4297 11.3027C14.3437 11.0593 14.2175 10.8272 14.0371 10.6267C14.0307 10.6191 14.0242 10.6114 14.0178 10.6038C13.9704 10.5478 13.9203 10.4937 13.869 10.4405C13.8626 10.4339 13.8563 10.4273 13.85 10.4207C13.8253 10.3949 13.8 10.3697 13.7738 10.3452C13.7618 10.3339 13.7501 10.3226 13.7387 10.3109C13.7231 10.2951 13.7071 10.2798 13.6909 10.2646C13.688 10.2619 13.6852 10.2592 13.6822 10.2564C13.6644 10.2397 13.6464 10.2232 13.6277 10.2072C13.6196 10.1999 13.6121 10.1924 13.6045 10.1847C13.5889 10.1689 13.5725 10.1539 13.5557 10.1391C13.5511 10.135 13.5511 10.135 13.5464 10.1309C13.5365 10.122 13.5264 10.1132 13.5164 10.1044C13.5094 10.0982 13.5024 10.092 13.4954 10.0858C13.4807 10.0728 13.4661 10.0599 13.4514 10.0469C13.4327 10.0304 13.414 10.0138 13.3953 9.99728C13.3808 9.98448 13.3663 9.9717 13.3518 9.95892C13.3449 9.95282 13.338 9.94672 13.3311 9.94062C13.3215 9.93207 13.3118 9.92353 13.3021 9.915C13.2993 9.91252 13.2965 9.91003 13.2936 9.90747C13.2772 9.89303 13.2603 9.87939 13.2427 9.86601C13.2309 9.85681 13.2197 9.84709 13.2086 9.83723C13.2063 9.83517 13.2039 9.83311 13.2015 9.83099C13.1939 9.82428 13.1863 9.81757 13.1788 9.81085C13.1734 9.80612 13.168 9.80139 13.1627 9.79667C13.1515 9.7868 13.1404 9.77693 13.1292 9.76705C13.115 9.75447 13.1007 9.7419 13.0865 9.72933C13.0754 9.71959 13.0644 9.70983 13.0534 9.70007C13.0481 9.69544 13.0429 9.69081 13.0376 9.68618C12.9881 9.64247 12.9881 9.64247 12.9659 9.61928C12.9544 9.60754 12.9417 9.59681 12.9292 9.58595C12.911 9.57006 12.8933 9.55416 12.8768 9.53688C12.869 9.52907 12.8611 9.52151 12.853 9.51396C12.8503 9.51139 12.8475 9.50881 12.8447 9.50615C12.8391 9.50097 12.8336 9.49581 12.828 9.49066C12.8254 9.48826 12.8228 9.48585 12.8202 9.48338C12.8179 9.48124 12.8155 9.47909 12.8132 9.47688C12.8067 9.46993 12.8025 9.46306 12.7983 9.45489C12.8013 9.45205 12.8043 9.4492 12.8074 9.44627C12.8275 9.42717 12.8472 9.40802 12.8657 9.38768C12.8824 9.36926 12.9003 9.35201 12.9185 9.33477C12.9321 9.32187 12.945 9.30869 12.9575 9.29493C12.9742 9.27658 12.9919 9.25942 13.0101 9.24227C13.0237 9.22936 13.0366 9.21619 13.0491 9.20243C13.0658 9.18407 13.0836 9.16691 13.1017 9.14975C13.1153 9.13693 13.1281 9.12384 13.1405 9.11016C13.158 9.09081 13.1769 9.07282 13.1961 9.05477C13.2138 9.03814 13.2301 9.02086 13.2463 9.00306C13.2579 8.99072 13.2701 8.97901 13.2825 8.9673C13.2984 8.95229 13.3137 8.93711 13.3283 8.92105C13.345 8.9027 13.3627 8.88554 13.3809 8.86838C13.3945 8.85548 13.4074 8.8423 13.4199 8.82854C13.4366 8.81019 13.4543 8.79303 13.4725 8.77587C13.4861 8.76297 13.499 8.74979 13.5115 8.73603C13.5282 8.71768 13.5459 8.70052 13.5641 8.68336C13.5777 8.67046 13.5906 8.65728 13.6031 8.64352C13.6198 8.62517 13.6375 8.60801 13.6557 8.59086C13.6727 8.57475 13.6884 8.55797 13.704 8.54079C13.7186 8.52534 13.7341 8.51068 13.7497 8.49604C13.7618 8.48493 13.7618 8.48493 13.7711 8.472C13.7861 8.4778 13.7966 8.48555 13.8087 8.49537C13.8144 8.50003 13.8144 8.50003 13.8203 8.50478C13.8242 8.50795 13.8281 8.51113 13.8321 8.5144C13.8394 8.52019 13.8467 8.52597 13.8539 8.53174C13.8594 8.53606 13.8594 8.53606 13.8649 8.54046C13.872 8.5461 13.8791 8.55173 13.8862 8.55736C13.9356 8.59654 13.9842 8.6366 14.0327 8.67671C14.0387 8.68172 14.0448 8.68672 14.0509 8.69172C14.0852 8.72012 14.1195 8.74853 14.1523 8.77833C14.1607 8.78552 14.169 8.79208 14.1778 8.7987C14.2072 8.82137 14.2344 8.84617 14.2619 8.87056C14.2681 8.87598 14.2742 8.8814 14.2803 8.88682C14.2932 8.89813 14.306 8.90946 14.3188 8.92079C14.3351 8.93524 14.3514 8.94968 14.3678 8.96411C14.3805 8.97528 14.3931 8.98647 14.4058 8.99765C14.4118 9.00298 14.4178 9.0083 14.4238 9.01362C14.4808 9.06389 14.4808 9.06389 14.5023 9.08646C14.5137 9.09814 14.5263 9.10877 14.5388 9.11955C14.5577 9.1361 14.5761 9.15276 14.5933 9.17073C14.6024 9.18001 14.6124 9.18851 14.6223 9.19713C14.6301 9.2041 14.6373 9.21128 14.6446 9.21869C14.6605 9.23486 14.677 9.25047 14.6936 9.26602C14.7128 9.28392 14.7316 9.30202 14.7499 9.32064C14.7591 9.32997 14.7686 9.33907 14.7781 9.34817C14.7926 9.36214 14.8064 9.37633 14.8199 9.39105C14.8339 9.40645 14.8485 9.42115 14.8637 9.43562C14.8821 9.4531 14.8994 9.47112 14.9164 9.48971C14.9289 9.50316 14.9418 9.51624 14.9548 9.52933C14.9754 9.55012 14.995 9.57135 15.0142 9.59318C15.0274 9.60823 15.0411 9.62282 15.0551 9.63726C15.0761 9.6588 15.0956 9.68113 15.115 9.70376C15.1304 9.72176 15.1462 9.73946 15.1623 9.75699C15.19 9.78731 15.216 9.8187 15.242 9.85018C15.2497 9.85956 15.2576 9.86892 15.2654 9.87826C15.268 9.88135 15.2706 9.88445 15.2733 9.88763C15.278 9.89335 15.2828 9.89906 15.2876 9.90478C15.3328 9.9588 15.3758 10.0142 15.4183 10.0699C15.4264 10.0805 15.4346 10.0911 15.4427 10.1016C15.4757 10.1447 15.5069 10.1885 15.5368 10.2334C15.5439 10.244 15.5513 10.2544 15.5587 10.2648C15.7718 10.57 15.9484 10.9132 15.9661 11.6842C15.9582 11.7123 15.949 11.74 15.939 11.7676C15.9377 11.7712 15.9364 11.7747 15.9351 11.7784C15.8922 11.8938 15.8262 12.0017 15.74 12.0963C15.7347 12.1021 15.7295 12.108 15.7244 12.1139C15.705 12.1359 15.6839 12.1564 15.6624 12.1768C15.653 12.1859 15.644 12.195 15.635 12.2044C15.6226 12.2171 15.609 12.2279 15.5945 12.2387C15.5855 12.2456 15.5773 12.2529 15.569 12.2605C15.5484 12.279 15.5257 12.2949 15.5028 12.3111C15.4979 12.3146 15.4931 12.3181 15.4882 12.3217C15.4202 12.371 15.3477 12.4148 15.2716 12.4537C15.268 12.4555 15.2643 12.4574 15.2606 12.4593C14.9596 12.612 14.6069 12.6681 14.264 12.685C14.2596 12.6852 14.2552 12.6854 14.2507 12.6856C13.8132 12.7071 13.37 12.6587 12.8856 12.577C12.8808 12.5762 12.876 12.5754 12.8711 12.5745C12.527 12.515 12.1879 12.4375 11.8518 12.3496C11.847 12.3484 11.8423 12.3472 11.8375 12.3459C11.6606 12.2998 11.4855 12.2495 11.3106 12.1979C11.2975 12.1941 11.2843 12.1902 11.2712 12.1863C11.142 12.1483 11.0139 12.1079 10.8861 12.0664C10.8565 12.0568 10.8268 12.0473 10.7972 12.0378C10.6175 11.9803 10.4396 11.9186 10.2621 11.8559C10.2503 11.8518 10.2385 11.8476 10.2267 11.8434C10.1137 11.8035 10.0011 11.7628 9.88883 11.7213C9.88098 11.7184 9.88098 11.7184 9.87298 11.7155C9.84516 11.7052 9.81737 11.6949 9.78959 11.6845C9.78559 11.683 9.78159 11.6815 9.77747 11.68C9.65776 11.6352 9.5386 11.5894 9.41963 11.5432C9.37238 11.5248 9.32509 11.5065 9.27777 11.4883C9.03211 11.3938 8.78695 11.2984 8.54492 11.1968C8.53716 11.1935 8.52939 11.1903 8.52162 11.187C8.44669 11.1556 8.37245 11.1229 8.29822 11.0902C8.29055 11.0869 8.28289 11.0835 8.27522 11.0801C8.21258 11.0526 8.15066 11.0242 8.08946 10.9943C8.07379 10.9867 8.05804 10.9792 8.04229 10.9717C7.98204 10.9431 7.92343 10.9122 7.86484 10.8811C7.86108 10.8791 7.85732 10.8771 7.85345 10.875C7.61604 10.7497 7.38556 10.6054 7.31082 10.3573C7.26168 10.1827 7.29993 10.0096 7.40246 9.85576C7.46406 9.7678 7.54641 9.68868 7.63801 9.62449C7.64327 9.62066 7.64853 9.61682 7.65377 9.61297C7.87639 9.45002 8.13653 9.324 8.38828 9.2005C8.39077 9.19928 8.39326 9.19806 8.39582 9.1968C8.46824 9.16127 8.54091 9.12618 8.61393 9.09162C8.62846 9.08474 8.64299 9.07784 8.65752 9.07095C8.73782 9.03287 8.81831 8.99509 8.89882 8.95734C8.97317 8.92248 9.04748 8.88756 9.12163 8.85239C9.14203 8.84272 9.16244 8.83309 9.18287 8.82348C9.23471 8.79909 9.28628 8.77436 9.3373 8.74864C9.3667 8.73385 9.39637 8.71957 9.42618 8.70544C9.47938 8.68014 9.53154 8.65342 9.58348 8.62618C9.58799 8.62382 9.5925 8.62147 9.59714 8.61904C9.65772 8.58732 9.71754 8.55469 9.77677 8.52105C9.79242 8.51218 9.8081 8.50337 9.82379 8.49456C9.91013 8.4461 9.99625 8.39736 10.0818 8.34787C10.0931 8.34137 10.1044 8.33488 10.1157 8.3284C10.2659 8.24211 10.4151 8.15451 10.5635 8.06568C10.5732 8.05987 10.5829 8.05406 10.5926 8.04826C10.6797 7.99612 10.7665 7.94347 10.8528 7.89032C10.8657 7.88237 10.8787 7.87443 10.8916 7.8665C10.9165 7.85121 10.9414 7.8359 10.9663 7.82059C10.972 7.81706 10.972 7.81706 10.9779 7.81345C11.0199 7.78756 11.0618 7.76145 11.1033 7.73484C11.1251 7.72087 11.1471 7.70708 11.1691 7.69339C11.2046 7.67135 11.2397 7.64895 11.2748 7.62647C11.2846 7.62021 11.2944 7.61398 11.3042 7.60775C11.3482 7.57972 11.392 7.55137 11.4357 7.52286C11.4459 7.51617 11.4562 7.50951 11.4665 7.50285C11.5068 7.47677 11.5467 7.45029 11.5863 7.42348C11.6121 7.40608 11.638 7.38896 11.6642 7.37202C11.694 7.35269 11.7235 7.33303 11.7527 7.31299C11.764 7.30534 11.7752 7.29776 11.7865 7.29017C11.8255 7.2639 11.8642 7.23736 11.9029 7.21073C11.9163 7.20149 11.9297 7.19226 11.9432 7.18304C11.9592 7.17201 11.9753 7.16096 11.9913 7.14991C11.9941 7.14804 11.9968 7.14616 11.9996 7.14424C12.0321 7.12183 12.0643 7.09907 12.0962 7.07604C12.1149 7.06258 12.1337 7.04931 12.1527 7.0362C12.1866 7.01285 12.2198 6.9889 12.2531 6.96489C12.2575 6.9617 12.2619 6.95851 12.2665 6.95523C12.2743 6.94959 12.2821 6.94395 12.2898 6.9383C12.2974 6.93281 12.305 6.92733 12.3126 6.92186C12.3369 6.90443 12.3608 6.88674 12.3846 6.86886C12.3995 6.85769 12.4146 6.84667 12.4297 6.83577C12.4545 6.81794 12.4789 6.79971 12.5032 6.78143C12.5103 6.77612 12.5174 6.77082 12.5245 6.76553C12.5929 6.71448 12.6613 6.66332 12.7277 6.61019C12.7366 6.60307 12.7456 6.59606 12.7547 6.58908C12.7717 6.57599 12.7884 6.56265 12.8052 6.5493C12.8143 6.54209 12.8234 6.53497 12.8327 6.52789C12.8498 6.51474 12.8664 6.50121 12.8831 6.48765C12.8968 6.47649 12.9106 6.46541 12.9245 6.45441C12.9461 6.43732 12.9674 6.41998 12.9886 6.4026C12.9985 6.39452 13.0084 6.38646 13.0183 6.37842C13.0415 6.35962 13.0644 6.34071 13.0864 6.32086C13.0943 6.31403 13.1024 6.3077 13.1108 6.30139C13.132 6.28512 13.1516 6.26756 13.1713 6.24988C13.2103 6.21481 13.2103 6.21481 13.2288 6.20097C13.2547 6.18129 13.2785 6.15956 13.3026 6.13819C13.3111 6.13065 13.3196 6.12314 13.3282 6.11563C13.3521 6.09453 13.3757 6.0735 13.3976 6.05073C13.4153 6.03297 13.435 6.01674 13.4541 6.00016C13.4725 5.98406 13.4901 5.96773 13.5069 5.9503C13.5139 5.9432 13.5213 5.93657 13.529 5.92996C13.5418 5.91878 13.5536 5.90708 13.5654 5.89502C13.5777 5.88268 13.5904 5.87068 13.6031 5.85865C13.6251 5.83777 13.6467 5.81665 13.6677 5.79494C13.6743 5.78807 13.681 5.7812 13.6876 5.77434C13.6899 5.77199 13.6922 5.76964 13.6945 5.76722C13.7077 5.75359 13.7211 5.74015 13.7348 5.72688C13.7514 5.71074 13.767 5.69407 13.7825 5.67713C13.7936 5.66514 13.8049 5.65337 13.8163 5.6416C13.837 5.62008 13.8569 5.59803 13.8765 5.57574C13.8892 5.56137 13.9021 5.54715 13.915 5.53295C13.9399 5.50547 13.9646 5.47783 13.9892 5.45008C13.9926 5.44621 13.9926 5.44621 13.9961 5.44227C14.0142 5.42179 14.0322 5.40126 14.0502 5.3807C14.0531 5.37746 14.0559 5.37422 14.0588 5.37088C14.0956 5.32895 14.1309 5.28649 14.1645 5.24249C14.174 5.22994 14.1839 5.21769 14.1942 5.20556C14.2356 5.15579 14.2726 5.1027 14.3076 5.04921C14.3102 5.04524 14.3102 5.04524 14.3128 5.04118C14.412 4.89071 14.412 4.89071 14.4222 4.72162C14.4141 4.70427 14.403 4.69084 14.3861 4.67918C14.3675 4.67468 14.3485 4.67414 14.3293 4.67326C14.3259 4.67309 14.3224 4.67293 14.3189 4.67276C14.3075 4.67222 14.2961 4.67172 14.2847 4.67123C14.2807 4.67106 14.2768 4.67089 14.2727 4.67071C13.869 4.65377 13.4637 4.69622 12.2746 4.96464C12.2591 4.96903 12.2436 4.97339 12.2281 4.97774C12.1354 5.0038 12.0434 5.03167 11.9516 5.06019C11.9482 5.06124 11.9448 5.0623 11.9413 5.06339C11.938 5.0644 11.9348 5.06541 11.9314 5.06645C11.9283 5.06742 11.9252 5.06838 11.922 5.06938C11.9126 5.0724 11.9033 5.07563 11.894 5.07888C11.8779 5.0839 11.8779 5.0839 11.8605 5.0839C11.8226 5.00298 11.7865 4.92144 11.7505 4.83985C11.7293 4.79181 11.7079 4.7438 11.6865 4.6958C11.6784 4.67746 11.6702 4.65912 11.6621 4.64078C11.6601 4.63626 11.658 4.63173 11.656 4.62707C11.6352 4.58045 11.6145 4.53381 11.5938 4.48718C11.5921 4.48315 11.5903 4.47913 11.5884 4.47498C11.5741 4.44266 11.5597 4.41033 11.5454 4.37801C11.5328 4.34967 11.5203 4.32134 11.5077 4.29301C11.5059 4.28902 11.5042 4.28503 11.5023 4.28092C11.4809 4.2327 11.4595 4.18449 11.4381 4.13628C11.437 4.13388 11.436 4.13148 11.4348 4.129C11.4149 4.08414 11.4149 4.08414 11.395 4.03929C11.3912 4.03093 11.3875 4.02257 11.3838 4.01421C11.3747 3.99354 11.3654 3.97295 11.3557 3.95246C11.3539 3.94842 11.352 3.94438 11.35 3.94022C11.3465 3.93259 11.3429 3.92499 11.3392 3.91741C11.3276 3.8922 11.3276 3.8922 11.3313 3.87547C11.352 3.84084 11.3862 3.82218 11.4243 3.80421C11.4275 3.80266 11.4308 3.80112 11.4341 3.79953C11.7974 3.63061 12.2453 3.57051 13.4917 3.36208C13.4999 3.36103 13.5082 3.35995 13.5164 3.35887C13.5937 3.3489 13.6713 3.34491 13.7492 3.34167C13.7574 3.34133 13.7574 3.34133 13.7657 3.34098C14.1567 3.32542 14.5643 3.34264 15.6067 3.77244Z" fill="#2A1095"/>
</g>
<defs>
<clipPath id="clip0_310_3">
<rect width="16" height="16" fill="white"/>
</clipPath>
</defs>
</svg>
